<svg width="134" height="74" viewBox="0 0 134 74" fill="none" xmlns="http://www.w3.org/2000/svg">
<path d="M42.097 39.7293H46.2003V41.7057H39.5996V29.2762H42.097V39.7293Z" fill="white"/>
<path d="M49.0718 41.2344C48.3107 40.8135 47.7133 40.2165 47.2789 39.4447C46.8444 38.6729 46.6279 37.783 46.6279 36.7733C46.6279 35.7636 46.8512 34.8744 47.297 34.1026C47.7427 33.3309 48.3522 32.7345 49.1253 32.3129C49.8985 31.892 50.7606 31.6804 51.7117 31.6804C52.6629 31.6804 53.525 31.8912 54.2981 32.3129C55.0713 32.7345 55.6807 33.3309 56.1265 34.1026C56.5723 34.8744 56.7955 35.7651 56.7955 36.7733C56.7955 37.7815 56.5662 38.6729 56.1084 39.4447C55.6506 40.2165 55.0321 40.8128 54.2529 41.2344C53.4737 41.6561 52.6025 41.8669 51.6393 41.8669C50.6761 41.8669 49.8313 41.6561 49.0703 41.2344H49.0718ZM52.9163 39.3641C53.3146 39.1443 53.6329 38.8152 53.8705 38.3755C54.1081 37.9366 54.2272 37.402 54.2272 36.7725C54.2272 35.8351 53.9806 35.1138 53.4873 34.6093C52.994 34.1049 52.3906 33.8526 51.677 33.8526C50.9635 33.8526 50.3661 34.1049 49.8841 34.6093C49.4021 35.1138 49.1615 35.8351 49.1615 36.7725C49.1615 37.7099 49.3961 38.432 49.866 38.9365C50.3359 39.4409 50.9273 39.6932 51.6408 39.6932C52.0926 39.6932 52.5181 39.5832 52.9163 39.3634V39.3641Z" fill="white"/>
<path d="M58.4368 34.0936C58.8532 33.3278 59.4294 32.7345 60.1671 32.3129C60.904 31.892 61.7488 31.6804 62.7 31.6804C63.9249 31.6804 64.9387 31.9861 65.7412 32.5975C66.5437 33.2089 67.0815 34.0665 67.3554 35.1703H64.6618C64.5193 34.7426 64.2787 34.4076 63.9392 34.1644C63.6006 33.9212 63.1812 33.7992 62.6819 33.7992C61.9683 33.7992 61.4034 34.0574 60.987 34.574C60.5707 35.0905 60.3625 35.8231 60.3625 36.7733C60.3625 37.7235 60.5707 38.438 60.987 38.9545C61.4034 39.4711 61.9683 39.7293 62.6819 39.7293C63.6926 39.7293 64.3526 39.2783 64.6618 38.3763H67.3554C67.0815 39.4447 66.5407 40.2933 65.7322 40.9227C64.9236 41.5522 63.9128 41.8669 62.6992 41.8669C61.7473 41.8669 60.9033 41.6561 60.1664 41.2344C59.4287 40.8135 58.8524 40.2195 58.4361 39.4537C58.0197 38.688 57.8115 37.795 57.8115 36.774C57.8115 35.7531 58.0197 34.8601 58.4361 34.0943L58.4368 34.0936Z" fill="white"/>
<path d="M68.6135 34.0845C69.0118 33.3128 69.5526 32.7195 70.2367 32.3039C70.9201 31.8882 71.6841 31.6804 72.5289 31.6804C73.2659 31.6804 73.9115 31.8287 74.4644 32.1254C75.0173 32.4221 75.46 32.7963 75.7934 33.2473V31.8408H78.3089V41.7058H75.7934V40.2631C75.4721 40.7262 75.0294 41.1087 74.4644 41.4114C73.8995 41.7141 73.2485 41.8654 72.5108 41.8654C71.6781 41.8654 70.9201 41.6516 70.2367 41.2246C69.5526 40.797 69.0118 40.1946 68.6135 39.4176C68.2152 38.6406 68.0161 37.7468 68.0161 36.7379C68.0161 35.729 68.2152 34.8563 68.6135 34.0845ZM75.4367 35.2155C75.1983 34.7825 74.8777 34.4497 74.4735 34.2186C74.0692 33.9874 73.6347 33.8715 73.1716 33.8715C72.7085 33.8715 72.2793 33.9844 71.8871 34.2095C71.4948 34.4354 71.1765 34.7644 70.9329 35.1981C70.6893 35.6318 70.5671 36.1453 70.5671 36.7386C70.5671 37.332 70.6893 37.8515 70.9329 38.2965C71.1765 38.7415 71.4978 39.0833 71.8961 39.3205C72.2944 39.5584 72.7198 39.6766 73.1716 39.6766C73.6234 39.6766 74.0692 39.5607 74.4735 39.3295C74.8777 39.0976 75.1983 38.7656 75.4367 38.3326C75.6743 37.8997 75.7934 37.3802 75.7934 36.7748C75.7934 36.1694 75.6743 35.6499 75.4367 35.217V35.2155Z" fill="white"/>
<path d="M83.0714 28.5286V41.7057H80.574V28.5286H83.0714Z" fill="white"/>
<path d="M87.3082 41.3858C86.6127 41.0891 86.0621 40.6614 85.6578 40.1035C85.2535 39.5456 85.0453 38.8868 85.0333 38.1271H87.7087C87.7441 38.6375 87.9259 39.0411 88.2525 39.3378C88.5791 39.6344 89.0287 39.7828 89.5996 39.7828C90.1706 39.7828 90.6398 39.6435 90.9732 39.3641C91.3058 39.0855 91.4725 38.7204 91.4725 38.2694C91.4725 37.9019 91.3594 37.5985 91.1338 37.3613C90.9076 37.1241 90.6255 36.9367 90.2868 36.8004C89.9481 36.6641 89.4812 36.5128 88.8861 36.3464C88.0775 36.1092 87.4205 35.8743 86.9152 35.6431C86.4098 35.412 85.9754 35.0619 85.6133 34.5928C85.2505 34.1237 85.0695 33.498 85.0695 32.7142C85.0695 31.9786 85.2535 31.3371 85.6224 30.7912C85.9904 30.2453 86.5079 29.8267 87.1746 29.536C87.8407 29.2454 88.6017 29.1001 89.4578 29.1001C90.7424 29.1001 91.7855 29.4118 92.5888 30.0352C93.3914 30.6587 93.8341 31.5283 93.9179 32.6442H91.1708C91.1467 32.2165 90.9656 31.8634 90.627 31.5848C90.2883 31.3062 89.8387 31.1662 89.2798 31.1662C88.7918 31.1662 88.4026 31.2911 88.1115 31.5404C87.8196 31.7896 87.6747 32.1518 87.6747 32.6269C87.6747 32.9597 87.7849 33.2352 88.0051 33.4551C88.2254 33.6749 88.4984 33.8534 88.8258 33.9897C89.1524 34.126 89.6132 34.2833 90.2083 34.4618C91.0169 34.6997 91.6769 34.9369 92.1883 35.174C92.6997 35.412 93.1394 35.7681 93.5083 36.2425C93.8764 36.7176 94.0612 37.3402 94.0612 38.112C94.0612 38.7768 93.8884 39.3942 93.5437 39.9642C93.1983 40.5342 92.6937 40.9882 92.0276 41.3263C91.3616 41.6644 90.5704 41.8338 89.6555 41.8338C88.7873 41.8338 88.0051 41.6854 87.3097 41.3888L87.3082 41.3858Z" fill="white"/>
<path d="M98.9481 33.8887V38.6609C98.9481 38.9937 99.0281 39.2338 99.1887 39.3822C99.3494 39.5305 99.6194 39.605 100 39.605H101.16V41.7065H99.59C97.4848 41.7065 96.4326 40.6855 96.4326 38.6435V33.8887H95.2552V31.8408H96.4326V29.4012H98.9481V31.8408H101.16V33.8887H98.9481Z" fill="white"/>
<path d="M102.738 34.0845C103.137 33.3128 103.677 32.7195 104.362 32.3039C105.045 31.8882 105.809 31.6804 106.654 31.6804C107.391 31.6804 108.036 31.8287 108.589 32.1254C109.142 32.4221 109.585 32.7963 109.918 33.2473V31.8408H112.434V41.7058H109.918V40.2631C109.597 40.7262 109.154 41.1087 108.589 41.4114C108.024 41.7141 107.373 41.8654 106.636 41.8654C105.803 41.8654 105.045 41.6516 104.362 41.2246C103.677 40.797 103.137 40.1946 102.738 39.4176C102.34 38.6406 102.141 37.7468 102.141 36.7379C102.141 35.729 102.34 34.8563 102.738 34.0845ZM109.562 35.2155C109.323 34.7825 109.003 34.4497 108.598 34.2186C108.194 33.9874 107.76 33.8715 107.296 33.8715C106.833 33.8715 106.404 33.9844 106.012 34.2095C105.62 34.4354 105.301 34.7644 105.058 35.1981C104.814 35.6318 104.692 36.1453 104.692 36.7386C104.692 37.332 104.814 37.8515 105.058 38.2965C105.301 38.7415 105.623 39.0833 106.021 39.3205C106.419 39.5584 106.845 39.6766 107.296 39.6766C107.748 39.6766 108.194 39.5607 108.598 39.3295C109.003 39.0976 109.323 38.7656 109.562 38.3326C109.799 37.8997 109.918 37.3802 109.918 36.7748C109.918 36.1694 109.799 35.6499 109.562 35.217V35.2155Z" fill="white"/>
<path d="M114.682 34.0936C115.098 33.3278 115.674 32.7345 116.412 32.3129C117.149 31.892 117.994 31.6804 118.945 31.6804C120.17 31.6804 121.183 31.9861 121.986 32.5975C122.789 33.2089 123.326 34.0665 123.6 35.1703H120.907C120.764 34.7426 120.523 34.4076 120.184 34.1644C119.845 33.9212 119.426 33.7992 118.927 33.7992C118.213 33.7992 117.648 34.0574 117.232 34.574C116.815 35.0905 116.607 35.8231 116.607 36.7733C116.607 37.7235 116.815 38.438 117.232 38.9545C117.648 39.4711 118.213 39.7293 118.927 39.7293C119.937 39.7293 120.597 39.2783 120.907 38.3763H123.6C123.326 39.4447 122.785 40.2933 121.977 40.9227C121.168 41.5522 120.158 41.8669 118.944 41.8669C117.992 41.8669 117.148 41.6561 116.411 41.2344C115.673 40.8135 115.097 40.2195 114.681 39.4537C114.264 38.688 114.056 37.795 114.056 36.774C114.056 35.7531 114.264 34.8601 114.681 34.0943L114.682 34.0936Z" fill="white"/>
<path d="M130.754 41.7057L127.4 37.5036V41.7057H124.903V28.5286H127.4V36.0256L130.718 31.8407H133.965L129.612 36.7913L134 41.7057H130.754Z" fill="white"/>
<path d="M31.6043 21H19.3096C19.0597 21 18.8571 21.2023 18.8571 21.4518V33.7246C18.8571 33.9741 19.0597 34.1764 19.3096 34.1764H31.6043C31.8542 34.1764 32.0569 33.9741 32.0569 33.7246V21.4518C32.0569 21.2023 31.8542 21 31.6043 21Z" fill="url(#paint0_radial_342_252)"/>
<path d="M11.7669 41.7057H27.8329C28.0826 41.7057 28.2855 41.5032 28.2855 41.254V36.5105C28.2855 36.2612 28.0826 36.0587 27.8329 36.0587H17.4239C17.1743 36.0587 16.9714 35.8562 16.9714 35.6069V25.2164C16.9714 24.9672 16.7685 24.7646 16.5188 24.7646H11.7669C11.5172 24.7646 11.3143 24.9672 11.3143 25.2164V41.254C11.3143 41.5032 11.5172 41.7057 11.7669 41.7057Z" fill="url(#paint1_linear_342_252)"/>
<path fill-rule="evenodd" clip-rule="evenodd" d="M9.42862 26.1057V34.7185C9.42862 34.9391 9.24986 35.1176 9.02885 35.1176H0.40071C0.0446931 35.1176 -0.13407 34.6877 0.117858 34.4362L8.746 25.8233C8.99793 25.5719 9.42862 25.7503 9.42862 26.1057Z" fill="url(#paint2_linear_342_252)"/>
<path fill-rule="evenodd" clip-rule="evenodd" d="M17.9142 52.6V43.9872C17.9142 43.7666 18.093 43.5881 18.314 43.5881H26.9421C27.2981 43.5881 27.4769 44.0181 27.225 44.2695L18.5968 52.8824C18.3449 53.1339 17.9142 52.9554 17.9142 52.6Z" fill="url(#paint3_linear_342_252)"/>
<defs>
<radialGradient id="paint0_radial_342_252" cx="0" cy="0" r="1" gradientUnits="userSpaceOnUse" gradientTransform="translate(16.4464 36.5143) scale(28.6473 28.5965)">
<stop offset="0.07" stop-color="#1B58F4"/>
<stop offset="0.71" stop-color="#74FFE6"/>
</radialGradient>
<linearGradient id="paint1_linear_342_252" x1="35.2663" y1="18.1772" x2="10.3987" y2="42.4742" gradientUnits="userSpaceOnUse">
<stop offset="0.32" stop-color="#4979F6"/>
<stop offset="0.99" stop-color="#4D33BD"/>
</linearGradient>
<linearGradient id="paint2_linear_342_252" x1="11.7631" y1="27.6823" x2="1.6316" y2="37.8326" gradientUnits="userSpaceOnUse">
<stop offset="0.22" stop-color="#4D29B4"/>
<stop offset="0.36" stop-color="#4C33BC"/>
<stop offset="0.58" stop-color="#4B4ED2"/>
<stop offset="0.87" stop-color="#4979F6"/>
</linearGradient>
<linearGradient id="paint3_linear_342_252" x1="25.0813" y1="41.5379" x2="15.903" y2="50.7325" gradientUnits="userSpaceOnUse">
<stop offset="0.22" stop-color="#4D29B4"/>
<stop offset="0.36" stop-color="#4C33BC"/>
<stop offset="0.58" stop-color="#4B4ED2"/>
<stop offset="0.87" stop-color="#4979F6"/>
</linearGradient>
</defs>
</svg>
